<svg xmlns="http://www.w3.org/2000/svg" width="50" height="50" fill="none"><rect width="49" height="49" x=".5" y=".5" stroke="#D7AB80" rx="24.5"/><path fill="#D7AB80" d="M12.93 24.253h25.18a.748.748 0 0 1 0 1.497H12.93v-1.497Z"/><path fill="#D7AB80" d="M23.189 13.984a.749.749 0 0 1 .897.561c1.07 4.626 3.513 7.012 6.195 8.275 2.729 1.284 5.766 1.433 8.04 1.433a.748.748 0 1 1 0 1.497c-2.308 0-5.63-.143-8.677-1.577-3.094-1.456-5.842-4.214-7.017-9.292a.749.749 0 0 1 .562-.897Z"/><path fill="#D7AB80" d="M23.189 36.02a.749.749 0 0 0 .897-.562c1.07-4.626 3.513-7.012 6.195-8.274 2.729-1.285 5.766-1.434 8.04-1.434a.748.748 0 1 0 0-1.497c-2.308 0-5.63.143-8.677 1.577-3.094 1.456-5.842 4.215-7.017 9.292a.749.749 0 0 0 .562.897Z"/></svg>